<svg width="266" height="163" viewBox="0 0 266 163" fill="none" xmlns="http://www.w3.org/2000/svg">
<path d="M219.369 122.237C219.369 122.237 209.37 156.141 189.812 161.568C189.812 161.568 254.852 156.642 262.918 103.844C262.918 103.844 243.62 122.694 219.369 122.237Z" fill="white"/>
<path d="M69.7159 135.273C68.094 135.273 67.0156 136.782 67.0156 139.301C67.0156 141.993 67.9991 143.348 69.7159 143.348C71.3119 143.348 72.3989 141.941 72.3989 139.301C72.3989 136.662 71.4413 135.273 69.7159 135.273Z" fill="white"/>
<path d="M47.9048 124.566C50.191 124.566 51.6662 122.72 51.6662 118.691C51.6662 114.663 50.2859 112.825 47.8272 112.825C45.5669 112.825 44.0312 114.818 44.0312 118.674C44.0312 122.772 45.4375 124.566 47.9048 124.566Z" fill="white"/>
<path d="M119.9 135.299H119.098V139.215H120.098C121.392 139.215 122.255 138.516 122.255 137.214C122.255 135.808 121.315 135.299 119.909 135.299H119.9Z" fill="white"/>
<path d="M79.3609 135.299H78.5586V139.215H79.5507C80.8448 139.215 81.7075 138.516 81.7075 137.214C81.7075 135.808 80.7758 135.299 79.3609 135.299Z" fill="white"/>
<path d="M265.774 0.00862708L0 0.0603895L0.448608 163L169.177 162.914C173.879 162.914 175.906 162.896 182.264 161.818L185.983 160.455C205.79 154.96 216.281 120.123 216.384 119.778L216.583 119.114H217.273C217.566 119.131 217.868 119.131 218.162 119.131C242.533 119.131 262.142 100.264 262.341 100.065L263.005 99.4185C264.023 94.8892 264.765 90.2737 265.257 85.6151C266.534 73.658 265.179 0 265.766 0L265.774 0.00862708ZM21.1105 24.7338C21.1105 22.879 21.5849 21.5504 22.5339 20.7309C23.4743 19.9113 24.6389 19.4972 26.0279 19.4972H46.9572C54.2298 19.4972 60.3982 20.3513 65.4623 22.0508C70.5264 23.7503 74.7881 26.2695 78.2562 29.6081C81.7243 32.9554 84.3556 37.0792 86.1673 41.9966C87.9703 46.914 88.8762 52.6079 88.8762 59.0782C88.8762 66.5579 87.9013 72.9592 85.943 78.2735C83.9932 83.5964 81.1894 87.9358 77.5316 91.3004C73.8737 94.6649 69.4307 97.1323 64.1941 98.711C58.9661 100.281 52.7287 101.075 45.5078 101.075H26.0279C24.6389 101.075 23.4743 100.661 22.5339 99.8412C21.5849 99.0216 21.1105 97.6844 21.1105 95.8382V24.7338ZM68.5939 124.566C69.8189 124.566 70.8801 124.333 72.1051 123.833C72.2604 123.781 72.3898 123.73 72.4933 123.73C72.7263 123.73 72.8557 123.833 72.9678 124.144L73.6149 126.059C73.6666 126.214 73.6925 126.352 73.6925 126.473C73.6925 126.732 73.589 126.904 73.2266 127.042C71.4408 127.715 69.957 128.052 67.9641 128.052C62.4514 128.052 59.6821 124.394 59.6821 118.812C59.6821 113.23 63.0812 109.314 68.3006 109.314C70.1727 109.314 71.7514 109.676 73.2611 110.349C73.6235 110.504 73.7615 110.685 73.7615 110.875C73.7615 110.979 73.7356 111.108 73.6752 111.238L72.9247 113.42C72.8212 113.679 72.7176 113.808 72.5278 113.808C72.4243 113.808 72.3208 113.757 72.1914 113.705C70.8197 113.058 69.7586 112.825 68.5335 112.825C65.8332 112.825 64.0906 114.904 64.0906 118.691C64.0906 122.763 66.0662 124.566 68.6025 124.566H68.5939ZM20.4548 110.539C20.4548 109.978 20.6101 109.711 21.3175 109.711H25.4154C31.8512 109.711 36.0353 111.859 36.0353 118.778C36.0353 125.006 31.8512 127.733 26.58 127.733H21.2916C20.7654 127.733 20.4548 127.603 20.4548 126.922V110.539ZM29.8756 144.469C29.8756 144.831 29.7289 144.909 29.4874 144.909H28.4003C28.1588 144.909 27.9431 144.797 27.7878 144.564L22.5167 137.36H22.4822V144.495C22.4822 144.805 22.3355 144.918 22.0681 144.918H20.9034C20.6015 144.918 20.4634 144.84 20.4634 144.512V134.168C20.4634 133.832 20.6101 133.737 20.9034 133.737H21.9559C22.2147 133.737 22.3441 133.815 22.508 134.039L27.8223 141.355H27.8568V134.16C27.8568 133.849 28.0035 133.746 28.2796 133.746H29.4874C29.8324 133.746 29.8756 133.918 29.8756 134.177V144.495V144.469ZM39.0375 144.521C39.0375 144.78 38.9254 144.909 38.6493 144.909H32.6535C32.3257 144.909 32.2135 144.831 32.2135 144.469V134.117C32.2135 133.866 32.3257 133.72 32.5845 133.72H38.6752C38.934 133.72 39.0203 133.815 39.0203 133.987V134.091L38.9081 135.057C38.8736 135.35 38.7011 135.402 38.3646 135.402H34.3013V138.327H38.0368C38.3474 138.327 38.4423 138.465 38.4423 138.689V139.603C38.4423 139.871 38.3301 139.992 38.054 139.992H34.3013V143.227H38.6321C38.9081 143.227 39.0375 143.339 39.0375 143.606V144.521ZM47.932 109.322C53.3585 109.322 56.0846 113.351 56.0846 118.614C56.0846 124.454 52.6597 128.069 47.7854 128.069C42.566 128.069 39.6242 124.359 39.6242 118.778C39.6242 113.196 42.7644 109.322 47.932 109.322ZM48.8724 135.057C48.8379 135.333 48.6567 135.402 48.372 135.402H45.4388V144.547C45.4388 144.849 45.3784 144.918 45.1024 144.918H43.6875C43.3942 144.918 43.3424 144.849 43.3424 144.555V135.402H40.323C40.0469 135.402 39.9434 135.29 39.9434 135.014V134.056C39.9434 133.815 40.0642 133.72 40.3057 133.72H48.4842C48.9069 133.72 49.0191 133.84 48.9932 134.117L48.881 135.057H48.8724ZM63.9266 134.117L60.8985 144.469C60.8209 144.762 60.6397 144.909 60.3723 144.909H59.3025C59.0351 144.909 58.8626 144.78 58.7849 144.486L56.6799 137.076H56.6454L54.5404 144.435C54.4369 144.814 54.2988 144.909 53.9969 144.909H52.9616C52.6856 144.909 52.5475 144.831 52.4268 144.417L49.3383 134.177C49.321 134.091 49.3038 134.03 49.3038 133.97C49.3038 133.789 49.4073 133.711 49.5971 133.711H51.1586C51.495 133.711 51.6417 133.858 51.7107 134.108L53.6863 141.57H53.7036L55.7482 134.065C55.8172 133.806 55.9897 133.711 56.2313 133.711H57.3183C57.5771 133.711 57.7152 133.84 57.7755 134.048L59.8202 141.57H59.8547L61.813 134.082C61.8907 133.789 62.0718 133.711 62.3134 133.711H63.7023C63.8749 133.711 63.9612 133.823 63.9612 133.97C63.9612 134.013 63.9439 134.065 63.9353 134.108L63.9266 134.117ZM69.6378 145.107C66.5493 145.107 64.7721 142.856 64.7721 139.353C64.7721 135.851 66.7218 133.513 69.7586 133.513C72.9678 133.513 74.6242 135.937 74.6242 139.25C74.6242 142.908 72.5365 145.116 69.6378 145.116V145.107ZM84.2262 144.909H82.7596C82.4662 144.909 82.2678 144.831 82.1298 144.581L79.8005 140.785H78.5582V144.504C78.5582 144.745 78.4546 144.909 78.1786 144.909H76.8586C76.5826 144.909 76.4704 144.78 76.4704 144.504V134.186C76.4704 133.832 76.5481 133.72 76.9104 133.72H79.3001C80.7063 133.72 82.1988 133.935 83.0529 134.919C83.5705 135.506 83.8207 136.308 83.8207 137.179C83.8207 138.663 83.0356 139.828 81.7416 140.397L84.3901 144.486C84.4418 144.564 84.4763 144.65 84.4763 144.711C84.4763 144.84 84.3814 144.909 84.2348 144.909H84.2262ZM77.3245 119.649V110.383C77.3245 109.866 77.661 109.711 78.1268 109.711H80.6977C81.1981 109.711 81.4569 109.84 81.4569 110.383V119.347C81.4569 123.419 82.8545 124.584 85.2787 124.584C87.5648 124.584 88.9624 123.393 88.9624 119.364V110.383C88.9624 109.866 89.273 109.711 89.7389 109.711H92.3097C92.8015 109.711 93.0603 109.84 93.0603 110.383V119.623C93.0603 125.464 90.0667 128.06 85.0889 128.06C79.7401 128.06 77.3245 125.153 77.3245 119.64V119.649ZM94.0351 144.909H92.4219C92.0337 144.909 91.8525 144.78 91.6455 144.504L88.1515 140.017H88.117V144.504C88.117 144.797 88.0048 144.909 87.7288 144.909H86.4347C86.1414 144.909 86.0292 144.797 86.0292 144.504V134.099C86.0292 133.823 86.1759 133.72 86.4347 133.72H87.7288C87.9876 133.72 88.117 133.815 88.117 134.099V138.68H88.1515L91.4815 134.004C91.6282 133.815 91.818 133.72 92.0854 133.72H93.3795C93.5348 133.72 93.6383 133.815 93.6383 133.935C93.6383 133.996 93.6211 134.056 93.5779 134.117L89.8596 139.12L94.1646 144.409C94.2508 144.504 94.3112 144.616 94.3112 144.693C94.3112 144.823 94.2077 144.909 94.0524 144.909H94.0351ZM102.559 145.107C101.584 145.107 100.436 144.926 99.4702 144.581C99.2545 144.504 99.1941 144.409 99.1941 144.271C99.1941 144.21 99.1941 144.15 99.22 144.064L99.5565 143.011C99.6082 142.847 99.6859 142.752 99.8498 142.752C99.9188 142.752 99.9878 142.77 100.091 142.795C100.851 143.071 101.687 143.279 102.507 143.279C103.378 143.279 104.37 142.864 104.37 141.846C104.37 141.096 103.818 140.699 103.18 140.388L101.075 139.345C99.9274 138.775 99.1769 137.818 99.1769 136.558C99.1769 134.582 101.118 133.504 102.912 133.504C103.982 133.504 104.862 133.668 105.802 134.073C106.018 134.168 106.13 134.272 106.13 134.393C106.13 134.462 106.113 134.522 106.079 134.6L105.699 135.592C105.63 135.773 105.535 135.842 105.423 135.842C105.337 135.842 105.259 135.807 105.164 135.773C104.508 135.506 103.68 135.273 103.033 135.273C102.274 135.273 101.394 135.592 101.394 136.506C101.394 137.171 102.015 137.559 102.541 137.818L104.336 138.689C105.613 139.301 106.484 140.155 106.484 141.648C106.484 143.9 104.655 145.116 102.559 145.116V145.107ZM115.137 144.521C115.137 144.78 115.025 144.909 114.749 144.909H108.744C108.425 144.909 108.313 144.831 108.313 144.469V134.117C108.313 133.866 108.434 133.72 108.684 133.72H114.783C115.042 133.72 115.12 133.815 115.12 133.987V134.091L115.016 135.057C114.982 135.35 114.801 135.402 114.464 135.402H110.409V138.327H114.145C114.455 138.327 114.55 138.465 114.55 138.689V139.603C114.55 139.871 114.438 139.992 114.162 139.992H110.409V143.227H114.749C115.025 143.227 115.154 143.339 115.154 143.606V144.521H115.137ZM116.543 126.999C116.543 127.5 116.31 127.724 115.844 127.724H113.239C112.566 127.724 112.411 127.387 112.385 126.663L112.1 117.751H112.048L108.132 127.155C107.925 127.672 107.588 127.724 107.252 127.724H106.294C105.802 127.724 105.518 127.646 105.259 127.129L100.764 117.751H100.713L100.557 126.913C100.557 127.646 100.221 127.724 99.6773 127.724H97.5464C96.9511 127.724 96.6578 127.517 96.6578 126.973V126.896L97.3652 110.53C97.3911 109.909 97.6672 109.702 98.1675 109.702H100.031C100.635 109.702 100.859 109.909 101.092 110.401L106.829 122.142H106.881L112.074 110.401C112.281 109.969 112.566 109.702 113.135 109.702H114.956C115.473 109.702 115.655 109.883 115.68 110.349L116.543 126.913V126.999ZM124.773 144.909H123.298C123.014 144.909 122.815 144.831 122.677 144.581L120.339 140.785H119.097V144.504C119.097 144.745 119.002 144.909 118.726 144.909H117.397C117.121 144.909 117 144.78 117 144.504V134.186C117 133.832 117.078 133.72 117.44 133.72H119.839C121.236 133.72 122.729 133.935 123.583 134.919C124.101 135.506 124.359 136.308 124.359 137.179C124.359 138.663 123.574 139.828 122.272 140.397L124.929 144.486C124.972 144.564 125.006 144.65 125.006 144.711C125.006 144.84 124.903 144.909 124.765 144.909H124.773ZM130.148 116.931C130.717 116.931 130.925 117.216 130.925 117.622V119.52C130.925 120.037 130.666 120.27 130.174 120.27H124.247V124.368H131.028C131.494 124.368 131.779 124.575 131.779 125.067V126.991C131.779 127.491 131.546 127.715 131.063 127.715H120.986C120.391 127.715 120.123 127.56 120.123 126.904V110.418C120.123 109.978 120.356 109.693 120.796 109.693H131.132C131.546 109.693 131.779 109.9 131.779 110.168V110.289L131.546 112.394C131.494 112.937 131.157 113.041 130.536 113.041H124.247V116.914H130.148V116.931ZM135.048 134.117L131.244 144.555C131.166 144.78 130.994 144.918 130.743 144.918H129.656C129.346 144.918 129.208 144.788 129.104 144.512L125.127 134.177C125.093 134.108 125.075 134.048 125.075 133.987C125.075 133.823 125.205 133.728 125.395 133.728H126.818C127.155 133.728 127.327 133.84 127.405 134.065L130.269 142.062H130.321L133.012 134.117C133.116 133.832 133.254 133.737 133.625 133.737H134.764C134.971 133.737 135.074 133.832 135.074 133.979C135.074 134.03 135.057 134.073 135.04 134.134L135.048 134.117ZM140.88 134.738C140.88 134.997 140.768 135.083 140.544 135.083H139.621V143.555H140.501C140.725 143.555 140.837 143.701 140.837 143.891V144.59C140.837 144.788 140.759 144.918 140.544 144.918H136.696C136.48 144.918 136.368 144.78 136.368 144.616V143.882C136.368 143.658 136.463 143.555 136.696 143.555H137.55V135.083H136.61C136.385 135.083 136.291 134.962 136.291 134.755V134.039C136.291 133.866 136.385 133.72 136.575 133.72H140.535C140.759 133.72 140.872 133.866 140.872 134.022V134.738H140.88ZM150.853 144.443C149.792 144.883 148.817 145.107 147.635 145.107C144.227 145.107 142.554 142.692 142.554 139.362C142.554 136.032 144.547 133.504 147.79 133.504C148.912 133.504 149.913 133.728 150.836 134.177C151.026 134.28 151.086 134.358 151.086 134.453C151.086 134.513 151.077 134.574 151.043 134.66L150.672 135.678C150.629 135.825 150.543 135.885 150.448 135.885C150.396 135.885 150.335 135.851 150.275 135.825C149.464 135.411 148.739 135.238 147.929 135.238C145.677 135.238 144.806 137.309 144.806 139.267C144.806 141.76 145.97 143.348 147.963 143.348C148.739 143.348 149.533 143.166 150.292 142.821C150.37 142.795 150.439 142.761 150.491 142.761C150.603 142.761 150.681 142.839 150.75 143.002L151.069 143.874C151.095 143.951 151.121 144.029 151.121 144.098C151.121 144.245 151.06 144.34 150.862 144.426L150.853 144.443ZM151.31 126.922C151.31 127.603 151.026 127.733 150.56 127.733H148.351C147.885 127.733 147.497 127.551 147.212 127.163L139.474 116.854H139.422V126.947C139.422 127.525 139.163 127.733 138.637 127.733H136.222C135.618 127.733 135.367 127.603 135.367 126.982V110.521C135.367 109.849 135.678 109.719 136.222 109.719H138.404C138.922 109.719 139.181 109.874 139.465 110.263L147.204 120.65H147.256V110.47C147.256 109.9 147.54 109.719 148.058 109.719H150.577C151.25 109.719 151.302 110.082 151.302 110.521V126.93L151.31 126.922ZM159.489 144.521C159.489 144.78 159.377 144.909 159.101 144.909H153.105C152.786 144.909 152.665 144.831 152.665 144.469V134.117C152.665 133.866 152.786 133.72 153.036 133.72H159.135C159.394 133.72 159.48 133.815 159.48 133.987V134.091L159.368 135.057C159.342 135.35 159.161 135.402 158.816 135.402H154.753V138.327H158.497C158.799 138.327 158.894 138.465 158.894 138.689V139.603C158.894 139.871 158.773 139.992 158.505 139.992H154.753V143.227H159.092C159.368 143.227 159.497 143.339 159.497 143.606V144.521H159.489ZM164.337 145.107C163.362 145.107 162.215 144.926 161.249 144.581C161.033 144.504 160.981 144.409 160.981 144.271C160.981 144.21 160.981 144.15 161.007 144.064L161.344 143.011C161.395 142.847 161.482 142.752 161.637 142.752C161.706 142.752 161.784 142.77 161.878 142.795C162.638 143.071 163.483 143.279 164.285 143.279C165.165 143.279 166.149 142.864 166.149 141.846C166.149 141.096 165.597 140.699 164.967 140.388L162.862 139.345C161.715 138.775 160.955 137.818 160.955 136.558C160.955 134.582 162.896 133.504 164.691 133.504C165.761 133.504 166.649 133.668 167.59 134.073C167.805 134.168 167.909 134.272 167.909 134.393C167.909 134.462 167.9 134.522 167.866 134.6L167.469 135.592C167.4 135.773 167.314 135.842 167.201 135.842C167.115 135.842 167.037 135.807 166.943 135.773C166.278 135.506 165.459 135.273 164.812 135.273C164.053 135.273 163.173 135.592 163.173 136.506C163.173 137.171 163.794 137.559 164.329 137.818L166.123 138.689C167.4 139.301 168.28 140.155 168.28 141.648C168.28 143.9 166.451 145.116 164.346 145.116L164.337 145.107ZM170.212 110.358L170.005 112.411C169.953 112.928 169.617 113.058 169.065 113.058H164.501V127.051C164.501 127.629 164.415 127.724 163.897 127.724H160.964C160.421 127.724 160.369 127.646 160.369 127.103V113.058H155.615C155.098 113.058 154.891 112.799 154.891 112.273V110.349C154.891 109.909 155.123 109.702 155.589 109.702H169.557C170.031 109.702 170.212 109.909 170.212 110.245V110.349V110.358ZM170.747 95.2775C170.747 96.2437 170.575 97.1064 170.238 97.8656C169.902 98.6248 169.453 99.2545 168.884 99.7549C168.314 100.264 167.641 100.635 166.865 100.859C166.089 101.092 165.303 101.204 164.501 101.204H155.417C153.95 101.204 152.682 101.058 151.604 100.764C150.525 100.471 149.542 99.9361 148.636 99.1596C147.73 98.3832 146.859 97.3307 146.013 96.0021C145.176 94.6822 144.227 92.974 143.175 90.869L122.875 52.7287C121.702 50.4598 120.503 48.0097 119.278 45.3784C118.062 42.7558 116.966 40.2022 116 37.7176H115.87C116.043 40.7457 116.164 43.7565 116.25 46.7588C116.336 49.7696 116.379 52.8667 116.379 56.0588V98.7369C116.379 99.1596 116.259 99.5392 116.034 99.8757C115.801 100.212 115.404 100.497 114.835 100.73C114.274 100.963 113.498 101.144 112.532 101.265C111.565 101.394 109.409 101.454 107.89 101.454C106.372 101.454 104.017 101.394 103.05 101.265C102.084 101.144 101.325 100.963 100.782 100.73C100.229 100.497 99.8498 100.221 99.6428 99.8757C99.4271 99.5392 99.3322 99.1596 99.3322 98.7369V25.424C99.3322 23.4484 99.9102 21.9645 101.066 20.9811C102.222 19.9889 103.637 19.4972 105.319 19.4972H116.31C117.906 19.4972 119.252 19.6352 120.339 19.9027C121.435 20.1787 122.41 20.6273 123.272 21.2571C124.135 21.8869 124.946 22.7669 125.697 23.8711C126.456 24.984 127.232 26.3643 128.034 28.0035L143.917 57.8273C144.84 59.6304 145.754 61.4162 146.66 63.1588C147.566 64.8929 148.429 66.6442 149.274 68.3869C150.111 70.1381 150.931 71.8463 151.733 73.5286C152.527 75.2109 153.312 76.8931 154.062 78.5668H154.123C154.002 75.625 153.898 72.5624 153.838 69.3617C153.769 66.1697 153.743 63.1157 153.743 60.217V21.9645C153.743 21.5418 153.864 21.1622 154.123 20.8258C154.373 20.4893 154.796 20.196 155.382 19.9458C155.969 19.6956 156.745 19.5145 157.712 19.4023C158.678 19.2988 161.413 19.247 162.931 19.247C164.363 19.247 166.08 19.2988 167.046 19.4023C168.012 19.5058 168.763 19.687 169.281 19.9458C169.807 20.196 170.178 20.4893 170.385 20.8258C170.592 21.1622 170.695 21.5418 170.695 21.9645V95.2861L170.747 95.2775ZM232.293 87.9013C230.697 91.1365 228.531 93.8367 225.797 96.0021C223.062 98.1675 219.87 99.798 216.212 100.894C212.563 101.981 208.646 102.533 204.488 102.533C201.667 102.533 199.053 102.3 196.637 101.843C194.221 101.377 192.091 100.825 190.236 100.169C188.381 99.5133 186.837 98.8318 185.603 98.1158C184.369 97.3997 183.472 96.7699 182.92 96.2264C182.376 95.6829 181.988 94.8892 181.755 93.8626C181.522 92.836 181.41 91.3521 181.41 89.4197C181.41 88.117 181.453 87.03 181.531 86.1414C181.617 85.2614 181.755 84.5454 181.945 84.0019C182.135 83.4584 182.385 83.0701 182.704 82.8372C183.015 82.6043 183.386 82.4921 183.809 82.4921C184.404 82.4921 185.232 82.8372 186.302 83.536C187.372 84.2262 188.743 84.994 190.425 85.8394C192.099 86.6849 194.118 87.4441 196.447 88.1429C198.777 88.8417 201.477 89.1867 204.548 89.1867C206.567 89.1867 208.37 88.9452 209.974 88.4621C211.57 87.9789 212.925 87.2888 214.038 86.4088C215.159 85.5289 216.005 84.4332 216.591 83.1305C217.178 81.8278 217.48 80.3785 217.48 78.7825C217.48 76.9363 216.971 75.3489 215.962 74.0203C214.952 72.6918 213.632 71.5185 212.019 70.4919C210.406 69.4566 208.56 68.4904 206.506 67.5845C204.444 66.6873 202.322 65.7211 200.14 64.7203C197.948 63.711 195.826 62.5636 193.773 61.2868C191.72 60.0013 189.873 58.4743 188.26 56.6799C186.638 54.8941 185.327 52.7805 184.318 50.3476C183.308 47.9148 182.808 44.9902 182.808 41.5825C182.808 37.6744 183.524 34.2409 184.982 31.2818C186.431 28.3141 188.381 25.8554 190.848 23.9056C193.307 21.9473 196.206 20.4893 199.544 19.5231C202.892 18.5568 206.429 18.0737 210.173 18.0737C212.105 18.0737 214.038 18.2204 215.97 18.5223C217.903 18.807 219.714 19.2125 221.388 19.7215C223.07 20.2219 227.099 21.999 228.402 22.6202C229.705 23.25 230.567 23.7762 230.981 24.199C231.404 24.6217 231.68 24.984 231.835 25.2687C231.982 25.562 232.103 25.9502 232.215 26.4334C232.319 26.9165 232.388 27.529 232.439 28.2623C232.482 28.9956 232.508 29.9101 232.508 31.0057C232.508 32.2221 232.474 33.2574 232.413 34.1028C232.353 34.9397 232.25 35.6298 232.094 36.182C231.948 36.7255 231.741 37.1309 231.464 37.3811C231.188 37.6313 230.826 37.7607 230.36 37.7607C229.894 37.7607 229.161 37.4674 228.152 36.8808C227.142 36.2941 225.9 35.6471 224.433 34.9569C223.674 34.6032 222.242 33.913 220.698 33.2746C219.266 32.6794 217.722 32.1359 216.79 31.8598C214.857 31.2904 212.735 31.0057 210.423 31.0057C208.62 31.0057 207.041 31.23 205.695 31.67C204.35 32.11 203.228 32.7225 202.322 33.4989C201.416 34.284 200.743 35.2157 200.312 36.3027C199.872 37.3898 199.648 38.5544 199.648 39.7708C199.648 41.5739 200.148 43.144 201.132 44.4726C202.124 45.8012 203.444 46.9744 205.1 48.0011C206.765 49.0277 208.646 49.9939 210.742 50.8998C212.847 51.8056 214.995 52.7632 217.178 53.7726C219.361 54.7819 221.509 55.9294 223.614 57.2062C225.719 58.483 227.591 60.0186 229.221 61.813C230.861 63.5988 232.189 65.6952 233.199 68.1194C234.208 70.535 234.708 73.3819 234.708 76.6602C234.708 80.9479 233.906 84.7093 232.31 87.9444L232.293 87.9013Z" fill="white"/>
<path d="M57.7406 86.2018C60.855 85.0285 63.4431 83.2513 65.5308 80.8703C67.6186 78.4978 69.1715 75.5473 70.1981 72.0102C71.2247 68.4818 71.7423 64.358 71.7423 59.6563C71.7423 55.7913 71.2937 52.2025 70.3879 48.881C69.482 45.5596 68.0327 42.6868 66.0398 40.2453C64.047 37.8039 61.4761 35.9059 58.3445 34.5342C55.2128 33.1711 51.1064 32.4896 46.0164 32.4896H37.6309V87.9617H46.2666C50.813 87.9617 54.6348 87.3751 57.7406 86.2018Z" fill="white"/>
<path d="M31.617 118.743C31.617 114.878 29.6932 113.265 26.0353 113.265H24.5859V124.221H26.4321C29.0203 124.221 31.617 123.1 31.617 118.734V118.743Z" fill="white"/>
</svg>
